<svg xmlns="http://www.w3.org/2000/svg" xmlns:xlink="http://www.w3.org/1999/xlink" id="Layer_1" width="600" height="323" x="0" y="0" enable-background="new 0 0 600 323" preserveAspectRatio="xMinYMin meet" version="1.1" viewBox="0 0 600 323" xml:space="preserve"><style type="text/css">@font-face{font-family:&quot;Queue Web&quot;;src:url(http://static.typesupply.com/opentype-cookbook/queueweb-light.woff) format(&quot;woff&quot;);font-weight:300;font-style:normal}</style><g><defs><path id="SVGID_1_" d="M600,233l-28.568-10l-28.566,10l-28.568-10l-28.567,10l-28.569-10l-28.572,10l-28.569-10l-28.571,10 l-28.57-10l-28.57,10l-28.572-10l-28.572,10l-28.566-10l-28.57,10l-28.57-10l-28.573,10l-28.574-10l-28.575,10l-28.575-10 l-28.579,10L0,223V5c0-2.75,2.25-5,5-5h590c2.75,0,5,2.25,5,5V233z"/></defs><use fill="#0A78A0" overflow="visible" xlink:href="#SVGID_1_"/><clipPath id="SVGID_2_"><use overflow="visible" xlink:href="#SVGID_1_"/></clipPath><path fill="#E6FA82" d="M580,157c0,2.75-2.25,5-5,5H25c-2.75,0-5-2.25-5-5V45c0-2.75,2.25-5,5-5h550 c2.75,0,5,2.25,5,5V157z" clip-path="url(#SVGID_2_)"/><rect width="520" height="30" x="40" y="80" fill="#0A78A0" clip-path="url(#SVGID_2_)"/><g clip-path="url(#SVGID_2_)"><text fill="#E6FA82" font-family="'Queue Web'" font-size="16" font-weight="300" transform="matrix(1 0 0 1 60 101)">rule 1</text></g><g clip-path="url(#SVGID_2_)"><text fill="#0A78A0" font-family="'Queue Web'" font-size="16" font-weight="300" transform="matrix(1 0 0 1 40 69)">lookup 1</text></g><path fill="#E6FA82" d="M580,249c0,2.75-2.25,5-5,5H25c-2.75,0-5-2.25-5-5v-80c0-2.75,2.25-5,5-5h550 c2.75,0,5,2.25,5,5V249z" clip-path="url(#SVGID_2_)"/><rect width="520" height="30" x="40" y="204" fill="#0A78A0" clip-path="url(#SVGID_2_)"/><g clip-path="url(#SVGID_2_)"><text fill="#E6FA82" font-family="'Queue Web'" font-size="16" font-weight="300" transform="matrix(1 0 0 1 60 225)">rule 1</text></g><g clip-path="url(#SVGID_2_)"><text fill="#0A78A0" font-family="'Queue Web'" font-size="16" font-weight="300" transform="matrix(1 0 0 1 40 193)">lookup 2</text></g><g clip-path="url(#SVGID_2_)"><text fill="#E6FA82" font-family="'Queue Web'" font-size="16" font-weight="300" transform="matrix(1 0 0 1 20 29)">feature 1</text></g><rect width="520" height="30" x="40" y="112" fill="#0A78A0" clip-path="url(#SVGID_2_)"/><g clip-path="url(#SVGID_2_)"><text fill="#E6FA82" font-family="'Queue Web'" font-size="16" font-weight="300" transform="matrix(1 0 0 1 60 133)">rule 2</text></g></g><g><defs><path id="SVGID_3_" d="M600,323l-28.568-10l-28.566,10l-28.568-10l-28.567,10l-28.569-10l-28.572,10l-28.569-10l-28.571,10 l-28.57-10l-28.57,10l-28.572-10l-28.572,10l-28.566-10l-28.57,10l-28.57-10l-28.573,10l-28.574-10l-28.575,10l-28.575-10 l-28.579,10L0,313v-58c0-2.75,2.25-5,5-5h590c2.75,0,5,2.25,5,5V323z"/></defs><use fill="#0A78A0" overflow="visible" xlink:href="#SVGID_3_"/><clipPath id="SVGID_4_"><use overflow="visible" xlink:href="#SVGID_3_"/></clipPath><path fill="#E6FA82" d="M580,337c0,2.75-2.25,5-5,5H25c-2.75,0-5-2.25-5-5v-42c0-2.75,2.25-5,5-5h550 c2.75,0,5,2.25,5,5V337z" clip-path="url(#SVGID_4_)"/><g clip-path="url(#SVGID_4_)"><text fill="#0A78A0" font-family="'Queue Web'" font-size="16" font-weight="300" transform="matrix(1 0 0 1 40 319)">lookup 1</text></g><g clip-path="url(#SVGID_4_)"><text fill="#E6FA82" font-family="'Queue Web'" font-size="16" font-weight="300" transform="matrix(1 0 0 1 20 279)">feature 2</text></g></g></svg>