<svg xmlns="http://www.w3.org/2000/svg" xmlns:xlink="http://www.w3.org/1999/xlink" id="Layer_1" width="600" height="405" x="0" y="0" enable-background="new 0 0 600 405" preserveAspectRatio="xMinYMin meet" version="1.1" viewBox="0 0 600 405" xml:space="preserve"><style type="text/css">@font-face{font-family:&quot;Queue Web&quot;;src:url(http://static.typesupply.com/opentype-cookbook/queueweb-light.woff) format(&quot;woff&quot;);font-weight:300;font-style:normal}</style><rect width="600" height="405" fill="#FAFFE1"/><g><path fill="#E6FA82" d="M142.801,318.862V97.666h46.4l1.199,29.2c10-20.801,31.199-33.2,55.199-33.2h2 c33.6,0,59.6,13.2,71.199,39.2c9.199-24.4,33.199-39.2,60.398-39.2h2c48,0,78,23.6,78,77.599v147.598h-49.6V162.466 c0-36.4-12.801-50.8-38.799-50.8c-26.4,0-44.801,21.999-44.801,57.199v149.997H276V162.466c0-36.4-12.801-50.8-38.4-50.8 c-26.398,0-45.199,21.999-45.199,57.199v149.997H142.801z"/></g><g><g><line x1="124.5" x2="124.5" y1="0" y2="1.5" fill="none" stroke="#0A78A0" stroke-miterlimit="10"/><line x1="124.5" x2="124.5" y1="4.478" y2="402.011" fill="none" stroke="#0A78A0" stroke-dasharray="2.978 2.978" stroke-miterlimit="10"/><line x1="124.5" x2="124.5" y1="403.5" y2="405" fill="none" stroke="#0A78A0" stroke-miterlimit="10"/></g></g><g><g><line x1="475.5" x2="475.5" y1="0" y2="1.5" fill="none" stroke="#0A78A0" stroke-miterlimit="10"/><line x1="475.5" x2="475.5" y1="4.478" y2="402.011" fill="none" stroke="#0A78A0" stroke-dasharray="2.978 2.978" stroke-miterlimit="10"/><line x1="475.5" x2="475.5" y1="403.5" y2="405" fill="none" stroke="#0A78A0" stroke-miterlimit="10"/></g></g><g><g><line x1="0" x2="1.5" y1="319.5" y2="319.5" fill="none" stroke="#0A78A0" stroke-miterlimit="10"/><line x1="4.5" x2="597" y1="319.5" y2="319.5" fill="none" stroke="#0A78A0" stroke-dasharray="3 3" stroke-miterlimit="10"/><line x1="598.5" x2="600" y1="319.5" y2="319.5" fill="none" stroke="#0A78A0" stroke-miterlimit="10"/></g></g><line x1="80" x2="266" y1="50.5" y2="50.5" fill="none" stroke="#F56464" stroke-miterlimit="10"/><line x1="334" x2="580" y1="50.5" y2="50.5" fill="none" stroke="#F56464" stroke-miterlimit="10"/><text fill="#F56464" font-family="'Queue Web'" font-size="16" font-weight="300" transform="matrix(1 0 0 1 170.3506 370.5703)">origin</text><text fill="#F56464" font-family="'Queue Web'" font-size="16" font-weight="300" transform="matrix(1 0 0 1 279.3203 56.3662)">x axis</text><circle cx="124.802" cy="318.863" r="5" fill="#F56464"/><polyline fill="none" stroke="#F56464" stroke-miterlimit="10" points="570 40.5 580 50.5 570 60.5"/><polyline fill="none" stroke="#F56464" stroke-miterlimit="10" points="90 60.5 80 50.5 90 40.5"/><line x1="134.802" x2="164.801" y1="328.863" y2="358.863" fill="none" stroke="#F56464" stroke-miterlimit="10"/><polyline fill="none" stroke="#F56464" stroke-miterlimit="10" points="134.802 343.006 134.802 328.863 148.943 328.863"/><line x1="50.5" x2="50.5" y1="20" y2="200.366" fill="none" stroke="#F56464" stroke-miterlimit="10"/><line x1="50.5" x2="50.5" y1="235.366" y2="385.366" fill="none" stroke="#F56464" stroke-miterlimit="10"/><text fill="#F56464" font-family="'Queue Web'" font-size="16" font-weight="300" transform="matrix(1 0 0 1 30.0283 223.8672)">y axis</text><polyline fill="none" stroke="#F56464" stroke-miterlimit="10" points="60.5 375.366 50.5 385.366 40.5 375.366"/><polyline fill="none" stroke="#F56464" stroke-miterlimit="10" points="40.5 30 50.5 20 60.5 30"/></svg>