<svg xmlns="http://www.w3.org/2000/svg" xmlns:xlink="http://www.w3.org/1999/xlink" id="Layer_1" width="600" height="405" x="0" y="0" enable-background="new 0 0 600 405" preserveAspectRatio="xMinYMin meet" version="1.1" viewBox="0 0 600 405" xml:space="preserve"><style type="text/css">@font-face{font-family:&quot;Queue Web&quot;;src:url(http://static.typesupply.com/opentype-cookbook/queueweb-light.woff) format(&quot;woff&quot;);font-weight:300;font-style:normal}</style><rect width="600" height="405" fill="#FAFFE1"/><g><path fill="#FFF" d="M142.801,318.862V97.666h46.4l1.199,29.2c10-20.801,31.199-33.2,55.199-33.2h2 c33.6,0,59.6,13.2,71.199,39.2c9.199-24.4,33.199-39.2,60.398-39.2h2c48,0,78,23.6,78,77.599v147.598h-49.6V162.466 c0-36.4-12.801-50.8-38.799-50.8c-26.4,0-44.801,21.999-44.801,57.199v149.997H276V162.466c0-36.4-12.801-50.8-38.4-50.8 c-26.398,0-45.199,21.999-45.199,57.199v149.997H142.801z"/></g><g><path fill="#E6FA82" d="M162.801,278.862V57.666h46.4l1.199,29.2c10-20.801,31.199-33.2,55.199-33.2h2 c33.6,0,59.6,13.2,71.199,39.2c9.199-24.4,33.199-39.2,60.398-39.2h2c48,0,78,23.6,78,77.599v147.598h-49.6V122.466 c0-36.4-12.801-50.8-38.799-50.8c-26.4,0-44.801,21.999-44.801,57.199v149.997H296V122.466c0-36.4-12.801-50.8-38.4-50.8 c-26.398,0-45.199,21.999-45.199,57.199v149.997H162.801z"/></g><g><g><line x1="124.5" x2="124.5" y1="0" y2="1.5" fill="none" stroke="#0A78A0" stroke-miterlimit="10"/><line x1="124.5" x2="124.5" y1="4.478" y2="402.011" fill="none" stroke="#0A78A0" stroke-dasharray="2.978 2.978" stroke-miterlimit="10"/><line x1="124.5" x2="124.5" y1="403.5" y2="405" fill="none" stroke="#0A78A0" stroke-miterlimit="10"/></g></g><g><g><line x1="475.5" x2="475.5" y1="0" y2="1.5" fill="none" stroke="#0A78A0" stroke-miterlimit="10"/><line x1="475.5" x2="475.5" y1="4.478" y2="402.011" fill="none" stroke="#0A78A0" stroke-dasharray="2.978 2.978" stroke-miterlimit="10"/><line x1="475.5" x2="475.5" y1="403.5" y2="405" fill="none" stroke="#0A78A0" stroke-miterlimit="10"/></g></g><g><g><line x1="0" x2="1.5" y1="319.5" y2="319.5" fill="none" stroke="#0A78A0" stroke-miterlimit="10"/><line x1="4.5" x2="597" y1="319.5" y2="319.5" fill="none" stroke="#0A78A0" stroke-dasharray="3 3" stroke-miterlimit="10"/><line x1="598.5" x2="600" y1="319.5" y2="319.5" fill="none" stroke="#0A78A0" stroke-miterlimit="10"/></g></g><circle cx="144.802" cy="278.863" r="5" fill="#F56464"/><line x1="520" x2="550" y1="239.5" y2="239.5" fill="none" stroke="#F56464" stroke-miterlimit="10" stroke-width="5"/><line x1="470" x2="520" y1="49.5" y2="49.5" fill="none" stroke="#F56464" stroke-miterlimit="10"/><text fill="#F56464" font-family="'Queue Web'" font-size="16" font-weight="300" transform="matrix(1 0 0 1 390 55.3662)">x advance</text><polyline fill="none" stroke="#F56464" stroke-miterlimit="10" points="510 39.5 520 49.5 510 59.5"/><line x1="535.5" x2="535.5" y1="34" y2="64" fill="none" stroke="#F56464" stroke-miterlimit="10" stroke-width="5"/><text fill="#F56464" font-family="'Queue Web'" font-size="16" font-weight="300" transform="matrix(1 0 0 1 190.3506 330.5703)">y placement</text><text fill="#F56464" font-family="'Queue Web'" font-size="16" font-weight="300" transform="matrix(1 0 0 1 37.3354 231.3652)">x placement</text><line x1="154.802" x2="184.801" y1="288.863" y2="318.863" fill="none" stroke="#F56464" stroke-miterlimit="10"/><polyline fill="none" stroke="#F56464" stroke-miterlimit="10" points="154.802 303.006 154.802 288.863 168.943 288.863"/><line x1="134.802" x2="104.803" y1="268.863" y2="238.863" fill="none" stroke="#F56464" stroke-miterlimit="10"/><polyline fill="none" stroke="#F56464" stroke-miterlimit="10" points="134.802 254.721 134.802 268.863 120.66 268.863"/><line x1="535.5" x2="535.5" y1="169.362" y2="219.362" fill="none" stroke="#F56464" stroke-miterlimit="10"/><text fill="#F56464" font-family="'Queue Web'" font-size="16" font-weight="300" transform="matrix(1 0 0 1 500.4365 157.8633)">y advance</text><polyline fill="none" stroke="#F56464" stroke-miterlimit="10" points="545.5 209.362 535.5 219.362 525.5 209.362"/></svg>